<?xml version="1.0" encoding="UTF-8"?>
<!-- Generator: Adobe Illustrator 24.1.0, SVG Export Plug-In . SVG Version: 6.00 Build 0) -->
<svg xmlns="http://www.w3.org/2000/svg" xmlns:xlink="http://www.w3.org/1999/xlink" version="1.1" id="Layer_1" x="0px" y="0px" viewBox="0 0 396 158.4" style="enable-background:new 0 0 396 158.4;" xml:space="preserve"> <style type="text/css"> .st0{fill:#424143;} .st1{fill:none;stroke:url(#SVGID_1_);stroke-width:2;stroke-linecap:round;stroke-linejoin:round;} </style> <path class="st0" d="M39.1,64.4h7.4l6,9.7l6-9.7h7.4v25.1h-6.9V75l-6.4,9.8h-0.1l-6.4-9.8v14.4h-6.8L39.1,64.4z"/> <path class="st0" d="M68.7,79.9L68.7,79.9c0-6.4,4-10.2,8.6-10.2c2.3-0.1,4.5,1,5.9,2.8v-2.4H90v19.4h-6.8v-2.6 c-1.3,1.9-3.5,3-5.9,3C72.7,89.9,68.7,86.1,68.7,79.9z M83.3,79.8L83.3,79.8c0.2-2.3-1.4-4.2-3.6-4.5s-4.2,1.4-4.4,3.6 c0,0.3,0,0.5,0,0.8v0.1c-0.2,2.2,1.4,4.2,3.6,4.4s4.2-1.4,4.4-3.6C83.3,80.3,83.3,80.1,83.3,79.8z"/> <path class="st0" d="M92.9,79.9L92.9,79.9c0-5.6,4.4-10.2,10-10.2c0.1,0,0.3,0,0.4,0c3.3-0.2,6.5,1.5,8.3,4.3l-4.6,3.4 c-0.8-1.3-2.1-2-3.6-2c-2.2,0.1-4,2-3.8,4.3c0,0,0,0,0,0.1v0.1c0,2.5,1.6,4.4,3.9,4.4c1.5,0,2.9-0.8,3.7-2l4.6,3.3 c-1.9,2.9-5.1,4.6-8.6,4.4C97.5,90,93,85.6,92.9,80.1C92.9,80,92.9,79.9,92.9,79.9z"/> <path class="st0" d="M114,70.1h6.8V74c1.1-2.7,2.9-4.4,6.1-4.2v7.2h-0.6c-3.5,0-5.6,2-5.6,6.5v6.1H114L114,70.1z"/> <path class="st0" d="M128.3,79.9L128.3,79.9c0-5.6,4.5-10.2,10.7-10.2s10.7,4.6,10.7,10.1v0.1c0,5.5-4.5,10.1-10.8,10.1 C132.8,89.9,128.3,85.4,128.3,79.9z M143.1,79.9L143.1,79.9c0.1-2.4-1.7-4.4-4.1-4.5c0,0-0.1,0-0.1,0c-2.2,0-4.1,1.8-4.1,4.1 c0,0.1,0,0.2,0,0.3v0.1c-0.1,2.3,1.7,4.3,4,4.4c0,0,0.1,0,0.1,0c2.3,0,4.1-1.8,4.1-4.1C143.1,80,143.1,79.9,143.1,79.9L143.1,79.9z"/> <path class="st0" d="M162.3,64.4h20.1v6.1h-13.1v4.3h11.9v5.8h-11.9v9h-7V64.4z"/> <path class="st0" d="M185.3,63.3h7.1v5h-7.1V63.3z M185.4,70.1h6.8v19.4h-6.8L185.4,70.1z"/> <path class="st0" d="M196,70.1h6.8v2.7c1.3-1.9,3.5-3.1,5.8-3.2c4.1,0,6.6,2.7,6.6,7.1v12.7h-6.8V79c0-2.2-1.1-3.3-2.8-3.3 c-1.6,0-2.9,1.1-2.9,3.3v10.5H196V70.1z"/> <path class="st0" d="M218,79.9L218,79.9c0-6.4,4-10.2,8.6-10.2c2.3-0.1,4.5,1,5.9,2.8v-2.4h6.8v19.4h-6.8v-2.6c-1.3,1.9-3.5,3-5.9,3 C222,89.9,218,86.1,218,79.9z M232.7,79.8L232.7,79.8c0.2-2.3-1.4-4.2-3.6-4.5c-2.2-0.2-4.2,1.4-4.4,3.6c0,0.3,0,0.5,0,0.8v0.1 c-0.2,2.2,1.4,4.2,3.6,4.4c2.2,0.2,4.2-1.4,4.4-3.6C232.7,80.3,232.7,80.1,232.7,79.8z"/> <path class="st0" d="M243,70.1h6.8v2.7c1.3-1.9,3.5-3.1,5.8-3.2c4.1,0,6.6,2.7,6.6,7.1v12.7h-6.8V79c0-2.2-1.1-3.3-2.8-3.3 s-2.9,1.1-2.9,3.3v10.5H243L243,70.1z"/> <path class="st0" d="M265,79.9L265,79.9c0-5.6,4.4-10.1,10-10.2c0.1,0,0.3,0,0.4,0c3.3-0.2,6.5,1.5,8.3,4.3l-4.6,3.4 c-0.8-1.3-2.1-2-3.6-2c-2.2,0.1-4,2-3.8,4.3c0,0,0,0,0,0.1v0.1c0,2.5,1.6,4.4,3.9,4.4c1.5,0,2.9-0.8,3.7-2l4.6,3.3 c-1.9,2.9-5.1,4.6-8.6,4.4c-5.5,0.1-10.1-4.3-10.1-9.8C265,80,265,79.9,265,79.9z"/> <path class="st0" d="M284.8,79.9L284.8,79.9c0-5.7,4.1-10.2,9.8-10.2c6.7,0,9.8,4.9,9.8,10.6c0,0.4,0,0.9,0,1.4h-13 c0.4,2,2.2,3.3,4.2,3.2c1.6,0,3.2-0.7,4.3-2l3.8,3.1c-2,2.6-5.1,4.1-8.4,3.9C289.1,89.9,284.8,85.8,284.8,79.9z M298,78.2 c-0.3-2.2-1.5-3.5-3.4-3.5c-1.8,0-3,1.4-3.4,3.5H298z"/> <path class="st0" d="M39.1,97.7H51c3.8,0,6.5,1,8.2,2.7c1.5,1.6,2.3,3.7,2.2,5.8v0.1c0.1,3.4-2,6.5-5.2,7.7l6,8.7h-8l-5.1-7.6h-3.1 v7.6h-7V97.7z M50.7,109.8c2.3,0,3.7-1.1,3.7-3v-0.1c0-2-1.5-3-3.8-3h-4.6v6.1H50.7z"/> <path class="st0" d="M63.4,113.2L63.4,113.2c0-5.7,4.1-10.2,9.8-10.2c6.7,0,9.8,4.9,9.8,10.6c0,0.4,0,0.9,0,1.4h-13 c0.4,2,2.2,3.3,4.2,3.2c1.6,0,3.2-0.7,4.3-2l3.8,3.1c-2,2.6-5.1,4.1-8.4,3.9C67.7,123.3,63.4,119.2,63.4,113.2z M76.6,111.6 c-0.3-2.2-1.5-3.5-3.4-3.5c-1.8,0-3,1.4-3.4,3.5H76.6z"/> <path class="st0" d="M84.4,120.4l2.5-4.1c2,1.4,4.3,2.1,6.6,2.2c1.2,0,1.8-0.4,1.8-1v-0.1c0-0.8-1.1-1.1-3.2-1.7 c-3.8-1-6.9-2.3-6.9-6.2v-0.1c0-4.1,3.3-6.4,7.8-6.4c2.8,0,5.6,0.8,8,2.3l-2.3,4.3c-1.7-1.1-3.7-1.7-5.7-1.8c-1,0-1.6,0.4-1.6,1v0.1 c0,0.8,1.1,1.1,3.2,1.7c3.8,1.1,6.9,2.4,6.9,6.2v0.1c0,4.3-3.2,6.5-7.9,6.5C90.3,123.3,87.1,122.3,84.4,120.4z"/> <path class="st0" d="M103.5,113.2L103.5,113.2c0-5.7,4.1-10.2,9.8-10.2c6.7,0,9.8,4.9,9.8,10.6c0,0.4,0,0.9,0,1.4h-13 c0.4,2,2.2,3.3,4.2,3.2c1.6,0,3.2-0.7,4.3-2l3.8,3.1c-2,2.6-5.1,4.1-8.4,3.9C107.8,123.3,103.5,119.2,103.5,113.2z M116.7,111.6 c-0.3-2.2-1.5-3.5-3.4-3.5c-1.8,0-3,1.4-3.4,3.5H116.7z"/> <path class="st0" d="M125.3,113.2L125.3,113.2c0-6.4,4-10.2,8.6-10.2c2.3-0.1,4.5,1,5.9,2.8v-2.4h6.8v19.4h-6.8v-2.6 c-1.3,1.9-3.5,3-5.9,3C129.3,123.3,125.3,119.4,125.3,113.2z M139.9,113.2L139.9,113.2c0.2-2.3-1.4-4.2-3.6-4.5 c-2.2-0.2-4.2,1.4-4.4,3.6c0,0.3,0,0.5,0,0.8v0.1c-0.2,2.2,1.4,4.2,3.6,4.4c2.2,0.2,4.2-1.4,4.4-3.6 C140,113.7,140,113.4,139.9,113.2z"/> <path class="st0" d="M150.3,103.4h6.8v3.9c1.1-2.7,2.9-4.4,6.1-4.2v7.2h-0.6c-3.5,0-5.6,2-5.6,6.5v6.1h-6.8V103.4z"/> <path class="st0" d="M164.5,113.2L164.5,113.2c0-5.6,4.4-10.1,10-10.2c0.1,0,0.3,0,0.4,0c3.3-0.2,6.5,1.5,8.3,4.3l-4.6,3.4 c-0.8-1.3-2.1-2-3.6-2c-2.2,0.1-4,2-3.8,4.3c0,0,0,0,0,0.1v0.1c0,2.5,1.6,4.4,3.9,4.4c1.5,0,2.9-0.8,3.7-2l4.6,3.3 c-1.9,2.9-5.1,4.6-8.6,4.4c-5.5,0.1-10.1-4.3-10.1-9.8C164.5,113.4,164.5,113.3,164.5,113.2z"/> <path class="st0" d="M185.7,96.7h6.8v9.4c1.3-1.9,3.5-3.1,5.8-3.1c4.1,0,6.6,2.7,6.6,7.1v12.7h-6.8v-10.5c0-2.2-1.1-3.3-2.8-3.3 c-1.6,0-2.9,1.1-2.9,3.3v10.5h-6.8V96.7z"/> <path class="st0" d="M218.7,97.7h10.8c6.3,0,10.4,3.3,10.4,8.8v0.1c0,6-4.6,9.1-10.8,9.1h-3.5v7.2h-7L218.7,97.7z M229,110.2 c2.4,0,4-1.3,4-3.3v-0.1c0-2.2-1.5-3.3-4-3.3h-3.3v6.6L229,110.2z"/> <path class="st0" d="M242.4,103.4h6.8v3.9c1.1-2.7,2.9-4.4,6.1-4.2v7.2h-0.6c-3.6,0-5.6,2-5.6,6.5v6.1h-6.8V103.4z"/> <path class="st0" d="M256.7,113.2L256.7,113.2c0-5.6,4.5-10.2,10.7-10.2c6.2,0,10.7,4.6,10.7,10.1v0.1c0,5.5-4.5,10.1-10.8,10.1 C261.2,123.3,256.7,118.8,256.7,113.2z M271.5,113.2L271.5,113.2c0.1-2.4-1.7-4.4-4.1-4.5c0,0-0.1,0-0.1,0c-2.2,0-4.1,1.8-4.1,4.1 c0,0.1,0,0.2,0,0.3v0.1c-0.1,2.3,1.7,4.3,4,4.4c0,0,0.1,0,0.1,0c2.3,0,4.1-1.8,4.1-4.1C271.5,113.4,271.5,113.3,271.5,113.2 L271.5,113.2z"/> <path class="st0" d="M280.8,126.4l2.2-4.5c2.1,1.2,4.4,1.8,6.8,1.8c3.4,0,5.1-1.7,5.1-4.8v-0.8c-1.4,1.8-3.6,2.9-6,2.9 c-4.8,0-8.6-3.4-8.6-9v-0.1c0-5.6,3.9-9,8.4-9c2.3-0.1,4.6,0.9,6.1,2.7v-2.3h6.8v14.7c0,3.5-0.8,6.1-2.5,7.7 c-1.8,1.8-4.5,2.7-8.5,2.7C287.1,128.7,283.8,127.9,280.8,126.4z M294.9,112.1L294.9,112.1c-0.1-2.3-2-4-4.2-3.8 c-2,0.1-3.7,1.8-3.8,3.8v0.1c0.1,2.2,2,3.9,4.2,3.7C293.2,115.8,294.8,114.1,294.9,112.1z"/> <path class="st0" d="M305.2,103.4h6.8v3.9c1.1-2.7,2.9-4.4,6.1-4.2v7.2h-0.6c-3.6,0-5.6,2-5.6,6.5v6.1h-6.8V103.4z"/> <path class="st0" d="M318.7,117.3L318.7,117.3c0-4.1,3-6.2,7.6-6.2c1.6,0,3.2,0.2,4.7,0.8v-0.3c0-2-1.3-3.2-3.9-3.2 c-1.8,0-3.7,0.4-5.4,1.1l-1.4-4.8c2.5-1,5.2-1.6,7.9-1.5c3.5,0,5.8,0.8,7.4,2.4c1.5,1.4,2.1,3.4,2.1,6.2v11.2h-6.7v-2 c-1.5,1.6-3.6,2.5-5.7,2.5C321.5,123.3,318.7,121.1,318.7,117.3z M331.1,115.8v-0.9c-0.9-0.3-1.8-0.5-2.7-0.5c-2,0-3.1,0.9-3.1,2.4 v0.1c0,1.2,1,2.1,2.1,2.1c0.1,0,0.2,0,0.3,0c1.7,0.2,3.2-1.1,3.4-2.8C331.1,116.1,331.1,115.9,331.1,115.8L331.1,115.8z"/> <path class="st0" d="M341.1,103.4h6.8v2.7c1.3-1.9,3.5-3.1,5.8-3.1c2.3-0.1,4.5,1.1,5.6,3.2c1.6-2,4-3.2,6.5-3.2 c4.1,0,6.6,2.6,6.6,7.1v12.7h-6.8v-10.5c0-2.1-1-3.3-2.7-3.3c-1.6,0-2.8,1.1-2.8,3.3v10.5h-6.8v-10.5c0-2.1-1.1-3.3-2.7-3.3 c-1.6,0-2.8,1.1-2.8,3.3v10.5h-6.8V103.4z"/> <linearGradient id="SVGID_1_" gradientUnits="userSpaceOnUse" x1="13.118" y1="105.3055" x2="210.581" y2="105.3055" gradientTransform="matrix(1 0 0 -1 0 160)"> <stop offset="0" style="stop-color:#3BB44A"/> <stop offset="0.1064" style="stop-color:#37B26D"/> <stop offset="0.3766" style="stop-color:#2DACC0"/> <stop offset="0.5" style="stop-color:#29AAE1"/> <stop offset="0.5559" style="stop-color:#3996D4"/> <stop offset="0.699" style="stop-color:#5F67B5"/> <stop offset="0.8259" style="stop-color:#7A459F"/> <stop offset="0.9306" style="stop-color:#8B3091"/> <stop offset="1" style="stop-color:#91298C"/> </linearGradient> <polyline class="st1" points="14.1,99.6 41,32.8 49.3,53.4 56.5,35.7 69.2,52.2 78.9,9.8 86.1,52.2 95.1,33.2 106.7,60.9 110.4,26.3 116.1,47.1 130.4,25.1 133.6,50.4 149.1,34.1 157.3,51.3 172.3,20.3 177.3,51.3 184.3,36.4 191.1,40.4 209.6,28.6 "/> <g> <path class="st0" d="M38.4,142.7L38.4,142.7c0-3.1,2.5-5.7,6-5.7c3.5,0,6,2.5,6,5.6v0c0,3.1-2.5,5.7-6,5.7 C40.9,148.3,38.4,145.8,38.4,142.7z M46.7,142.7L46.7,142.7c0-1.4-1-2.5-2.3-2.5c-1.4,0-2.3,1.1-2.3,2.4v0c0,1.3,1,2.4,2.3,2.4 C45.8,145.1,46.7,144,46.7,142.7z"/> <path class="st0" d="M52.6,140.3h-1.3v-3h1.3V137c0-1.2,0.3-2.2,0.9-2.8c0.7-0.7,1.5-0.9,2.8-0.9c1.2,0,1.9,0.1,2.5,0.3v2.7 c-0.4-0.1-0.9-0.2-1.4-0.2c-0.7,0-1.1,0.3-1.1,1v0.3h2.5v2.9h-2.4v7.8h-3.8V140.3z"/> <path class="st0" d="M66.2,144.7v-4.4h-1.3v-3.1h1.3v-2.7H70v2.7h2.5v3.1H70v3.7c0,0.8,0.3,1.1,1,1.1c0.5,0,1-0.1,1.4-0.4v3 c-0.7,0.4-1.6,0.6-2.6,0.6C67.6,148.3,66.2,147.3,66.2,144.7z"/> <path class="st0" d="M74.2,133.4H78v5.3c0.7-0.9,1.7-1.7,3.2-1.7c2.3,0,3.7,1.5,3.7,4v7.1h-3.8v-5.9c0-1.2-0.6-1.8-1.5-1.8 c-0.9,0-1.6,0.6-1.6,1.8v5.9h-3.8V133.4z"/> <path class="st0" d="M86.5,142.7L86.5,142.7c0-3.2,2.3-5.7,5.5-5.7c3.7,0,5.5,2.7,5.5,5.9c0,0.2,0,0.5,0,0.8h-7.3 c0.3,1.2,1.2,1.8,2.3,1.8c0.9,0,1.6-0.3,2.4-1.1l2.1,1.7c-1,1.3-2.5,2.2-4.7,2.2C88.9,148.3,86.5,146.1,86.5,142.7z M93.8,141.7 c-0.1-1.2-0.8-2-1.9-2c-1,0-1.7,0.8-1.9,2H93.8z"/> <path class="st0" d="M104.8,134h7.2c1.8,0,3,0.4,3.8,1.3c0.6,0.6,0.9,1.3,0.9,2.3v0c0,1.6-0.9,2.6-2.2,3.1c1.7,0.6,2.8,1.5,2.8,3.4 v0c0,2.4-2,3.9-5.3,3.9h-7.2V134z M111,139.6c1.2,0,1.8-0.4,1.8-1.2v0c0-0.8-0.6-1.2-1.8-1.2h-2.5v2.5H111z M111.6,144.9 c1.2,0,1.9-0.5,1.9-1.3v0c0-0.8-0.6-1.3-1.9-1.3h-3v2.6H111.6z"/> <path class="st0" d="M118.4,142.7L118.4,142.7c0-3.2,2.3-5.7,5.5-5.7c3.7,0,5.5,2.7,5.5,5.9c0,0.2,0,0.5,0,0.8h-7.3 c0.3,1.2,1.2,1.8,2.3,1.8c0.9,0,1.6-0.3,2.4-1.1l2.1,1.7c-1,1.3-2.5,2.2-4.7,2.2C120.9,148.3,118.4,146.1,118.4,142.7z M125.8,141.7c-0.1-1.2-0.8-2-1.9-2c-1,0-1.7,0.8-1.9,2H125.8z"/> <path class="st0" d="M130.6,142.7L130.6,142.7c0-3.1,2.4-5.7,5.8-5.7c2.2,0,3.7,1,4.6,2.4l-2.6,1.9c-0.5-0.7-1.1-1.1-2-1.1 c-1.2,0-2.1,1.1-2.1,2.4v0c0,1.4,0.9,2.5,2.2,2.5c0.9,0,1.5-0.4,2.1-1.1l2.5,1.8c-1,1.5-2.4,2.5-4.8,2.5 C133,148.3,130.6,145.8,130.6,142.7z"/> <path class="st0" d="M142.4,133.4h3.8v7.4l2.9-3.6h4.3l-3.8,4.3l3.9,6.5h-4.2l-2.2-3.7l-1,1.1v2.5h-3.8V133.4z"/> <path class="st0" d="M153.4,142.7L153.4,142.7c0-3.2,2.3-5.7,5.5-5.7c3.7,0,5.5,2.7,5.5,5.9c0,0.2,0,0.5,0,0.8h-7.3 c0.3,1.2,1.2,1.8,2.3,1.8c0.9,0,1.6-0.3,2.4-1.1l2.1,1.7c-1,1.3-2.5,2.2-4.7,2.2C155.9,148.3,153.4,146.1,153.4,142.7z M160.8,141.7c-0.1-1.2-0.8-2-1.9-2c-1,0-1.7,0.8-1.9,2H160.8z"/> <path class="st0" d="M166,137.2h3.8v2.2c0.6-1.5,1.6-2.4,3.4-2.4v4h-0.3c-2,0-3.1,1.1-3.1,3.6v3.4H166V137.2z"/> <path class="st0" d="M180.4,134h11.2v3.4h-7.3v2.4h6.6v3.2h-6.6v5h-3.9V134z"/> <path class="st0" d="M193.1,137.2h3.8v2.2c0.6-1.5,1.6-2.4,3.4-2.4v4H200c-2,0-3.1,1.1-3.1,3.6v3.4h-3.8V137.2z"/> <path class="st0" d="M201.7,133.4h4v2.8h-4V133.4z M201.8,137.2h3.8v10.8h-3.8V137.2z"/> <path class="st0" d="M207.3,142.7L207.3,142.7c0-3.2,2.3-5.7,5.5-5.7c3.7,0,5.5,2.7,5.5,5.9c0,0.2,0,0.5,0,0.8h-7.3 c0.3,1.2,1.2,1.8,2.3,1.8c0.9,0,1.6-0.3,2.4-1.1l2.1,1.7c-1,1.3-2.5,2.2-4.7,2.2C209.7,148.3,207.3,146.1,207.3,142.7z M214.6,141.7c-0.1-1.2-0.8-2-1.9-2c-1,0-1.7,0.8-1.9,2H214.6z"/> <path class="st0" d="M219.4,142.7L219.4,142.7c0-3.6,2.2-5.7,4.8-5.7c1.6,0,2.6,0.7,3.3,1.6v-5.1h3.8v14.6h-3.8v-1.4 c-0.7,0.9-1.7,1.7-3.3,1.7C221.7,148.3,219.4,146.2,219.4,142.7z M227.6,142.6L227.6,142.6c0-1.5-1-2.5-2.2-2.5 c-1.2,0-2.2,1-2.2,2.4v0c0,1.4,1,2.5,2.2,2.5C226.6,145.1,227.6,144.1,227.6,142.6z"/> <path class="st0" d="M233.4,137.2h3.8v1.5c0.7-0.9,1.7-1.7,3.2-1.7c1.4,0,2.5,0.6,3.1,1.8c0.9-1.1,2-1.8,3.6-1.8 c2.3,0,3.7,1.4,3.7,4v7.1h-3.8v-5.9c0-1.2-0.6-1.8-1.5-1.8c-0.9,0-1.6,0.6-1.6,1.8v5.9h-3.8v-5.9c0-1.2-0.6-1.8-1.5-1.8 s-1.5,0.6-1.5,1.8v5.9h-3.8V137.2z"/> <path class="st0" d="M252.3,145L252.3,145c0-2.3,1.7-3.4,4.2-3.4c1,0,2,0.2,2.6,0.4v-0.2c0-1.1-0.7-1.8-2.2-1.8c-1.1,0-2,0.2-3,0.6 l-0.8-2.7c1.2-0.5,2.5-0.8,4.4-0.8c1.9,0,3.3,0.5,4.1,1.3c0.8,0.8,1.2,1.9,1.2,3.4v6.2h-3.8v-1.1c-0.7,0.8-1.8,1.4-3.2,1.4 C253.9,148.3,252.3,147.1,252.3,145z M259.2,144.1v-0.5c-0.4-0.2-0.9-0.3-1.5-0.3c-1.1,0-1.7,0.5-1.7,1.3v0c0,0.7,0.6,1.2,1.3,1.2 C258.4,145.9,259.2,145.2,259.2,144.1z"/> <path class="st0" d="M264.8,137.2h3.8v1.5c0.7-0.9,1.7-1.8,3.2-1.8c2.3,0,3.7,1.5,3.7,4v7.1h-3.8v-5.9c0-1.2-0.6-1.8-1.5-1.8 c-0.9,0-1.6,0.6-1.6,1.8v5.9h-3.8V137.2z"/> <path class="st0" d="M283.4,134h3.9v14h-3.9V134z"/> <path class="st0" d="M289.6,137.2h3.8v1.5c0.7-0.9,1.7-1.8,3.2-1.8c2.3,0,3.7,1.5,3.7,4v7.1h-3.8v-5.9c0-1.2-0.6-1.8-1.5-1.8 c-0.9,0-1.6,0.6-1.6,1.8v5.9h-3.8V137.2z"/> <path class="st0" d="M301.5,146.7l1.4-2.3c1.2,0.8,2.6,1.2,3.7,1.2c0.7,0,1-0.2,1-0.6v0c0-0.4-0.6-0.6-1.7-0.9 c-2.1-0.6-3.8-1.3-3.8-3.5v0c0-2.3,1.8-3.6,4.3-3.6c1.6,0,3.2,0.5,4.5,1.3l-1.3,2.4c-1.1-0.6-2.3-1-3.2-1c-0.6,0-0.9,0.2-0.9,0.5v0 c0,0.4,0.6,0.6,1.8,1c2.1,0.6,3.8,1.3,3.8,3.4v0c0,2.4-1.8,3.6-4.4,3.6C304.8,148.3,303,147.8,301.5,146.7z"/> <path class="st0" d="M313.1,144.7v-4.4h-1.3v-3.1h1.3v-2.7h3.8v2.7h2.5v3.1h-2.5v3.7c0,0.8,0.3,1.1,1,1.1c0.5,0,1-0.1,1.4-0.4v3 c-0.7,0.4-1.6,0.6-2.6,0.6C314.5,148.3,313.1,147.3,313.1,144.7z"/> <path class="st0" d="M321.1,133.4h4v2.8h-4V133.4z M321.1,137.2h3.8v10.8h-3.8V137.2z"/> <path class="st0" d="M327.7,144.7v-4.4h-1.3v-3.1h1.3v-2.7h3.8v2.7h2.5v3.1h-2.5v3.7c0,0.8,0.3,1.1,1,1.1c0.5,0,1-0.1,1.4-0.4v3 c-0.7,0.4-1.6,0.6-2.6,0.6C329.1,148.3,327.7,147.3,327.7,144.7z"/> <path class="st0" d="M335.6,144.3v-7.1h3.8v5.9c0,1.2,0.6,1.8,1.5,1.8c0.9,0,1.6-0.6,1.6-1.8v-5.9h3.8v10.8h-3.8v-1.5 c-0.7,0.9-1.7,1.7-3.2,1.7C337,148.3,335.6,146.8,335.6,144.3z"/> <path class="st0" d="M349.1,144.7v-4.4h-1.3v-3.1h1.3v-2.7h3.8v2.7h2.5v3.1h-2.5v3.7c0,0.8,0.3,1.1,1,1.1c0.5,0,1-0.1,1.4-0.4v3 c-0.7,0.4-1.6,0.6-2.6,0.6C350.4,148.3,349.1,147.3,349.1,144.7z"/> <path class="st0" d="M356.3,142.7L356.3,142.7c0-3.2,2.3-5.7,5.5-5.7c3.7,0,5.5,2.7,5.5,5.9c0,0.2,0,0.5,0,0.8H360 c0.3,1.2,1.2,1.8,2.3,1.8c0.9,0,1.6-0.3,2.4-1.1l2.1,1.7c-1,1.3-2.5,2.2-4.7,2.2C358.7,148.3,356.3,146.1,356.3,142.7z M363.7,141.7c-0.1-1.2-0.8-2-1.9-2c-1,0-1.7,0.8-1.9,2H363.7z"/> </g> </svg>